0
SECTION
2
HEADER
9
$INSUNITS
70
4
9
$ACADVER
1
AC1014
9
$HANDSEED
5
FFFF
0
ENDSEC
0
SECTION
2
TABLES
0
TABLE
2
VPORT
5
8
100
AcDbSymbolTable
0
ENDTAB
0
TABLE
2
LTYPE
5
5
100
AcDbSymbolTable
0
LTYPE
5
14
100
AcDbSymbolTableRecord
100
AcDbLinetypeTableRecord
2
BYBLOCK
70
0
0
LTYPE
5
15
100
AcDbSymbolTableRecord
100
AcDbLinetypeTableRecord
2
BYLAYER
70
0
0
ENDTAB
0
TABLE
2
LAYER
5
2
100
AcDbSymbolTable
70
2
0
LAYER
5
50
100
AcDbSymbolTableRecord
100
AcDbLayerTableRecord
2
0
70
0
6
CONTINUOUS
0
ENDTAB
0
TABLE
2
STYLE
5
3
100
AcDbSymbolTable
70
1
0
STYLE
5
11
100
AcDbSymbolTableRecord
100
AcDbTextStyleTableRecord
2
STANDARD
70
0
0
ENDTAB
0
TABLE
2
VIEW
5
6
100
AcDbSymbolTable
70
0
0
ENDTAB
0
TABLE
2
UCS
5
7
100
AcDbSymbolTable
70
0
0
ENDTAB
0
TABLE
2
APPID
5
9
100
AcDbSymbolTable
70
2
0
APPID
5
12
100
AcDbSymbolTableRecord
100
AcDbRegAppTableRecord
2
ACAD
70
0
0
ENDTAB
0
TABLE
2
DIMSTYLE
5
A
100
AcDbSymbolTable
70
1
0
ENDTAB
0
TABLE
2
BLOCK_RECORD
5
1
100
AcDbSymbolTable
70
1
0
BLOCK_RECORD
5
1F
100
AcDbSymbolTableRecord
100
AcDbBlockTableRecord
2
*MODEL_SPACE
0
BLOCK_RECORD
5
1B
100
AcDbSymbolTableRecord
100
AcDbBlockTableRecord
2
*PAPER_SPACE
0
ENDTAB
0
ENDSEC
0
SECTION
2
BLOCKS
0
BLOCK
5
20
100
AcDbEntity
100
AcDbBlockBegin
2
*MODEL_SPACE
0
ENDBLK
5
21
100
AcDbEntity
100
AcDbBlockEnd
0
BLOCK
5
1C
100
AcDbEntity
100
AcDbBlockBegin
2
*PAPER_SPACE
0
ENDBLK
5
1D
100
AcDbEntity
100
AcDbBlockEnd
0
ENDSEC
0
SECTION
2
ENTITIES
0
CIRCLE
5
100
100
AcDbEntity
8
0
100
AcDbCircle
10
33.75033478676712
20
-90.99998130663451
30
0
40
1.9999999999999956
210
-3.600839453723925e-32
220
-6.5293461590812116e-62
230
1
0
CIRCLE
5
101
100
AcDbEntity
8
0
100
AcDbCircle
10
122.75033530830761
20
-90.999981306634496
30
0
40
2
210
-3.6008394537239775e-32
220
-3.944304526105059e-31
230
1
0
CIRCLE
5
102
100
AcDbEntity
8
0
100
AcDbCircle
10
33.750334786767112
20
-72.999981306634552
30
0
40
1.9999999999999956
210
-3.600839453723925e-32
220
-6.5293461590812116e-62
230
1
0
CIRCLE
5
103
100
AcDbEntity
8
0
100
AcDbCircle
10
122.75033530830761
20
-72.999981306634524
30
0
40
2
210
-3.6008394537239775e-32
220
-3.944304526105059e-31
230
1
0
CIRCLE
5
104
100
AcDbEntity
8
0
100
AcDbCircle
10
109.08239772465646
20
-8.7655004894316004
30
0
40
2
210
2.1051077833865777e-31
220
-3.944304526105059e-31
230
1
0
CIRCLE
5
105
100
AcDbEntity
8
0
100
AcDbCircle
10
109.08239772465636
20
-26.765500757652447
30
0
40
2
210
2.1051077833865786e-31
220
-3.944304526105059e-31
230
1
0
CIRCLE
5
106
100
AcDbEntity
8
0
100
AcDbCircle
10
88.394072985895903
20
-41.991268108655461
30
0
40
2.7500000000000036
210
-5.7721101695721549e-61
220
-3.944304526105059e-31
230
1
0
CIRCLE
5
107
100
AcDbEntity
8
0
100
AcDbCircle
10
-38.000000000000014
20
59.500000000000021
30
0
40
1.25
210
1.5540296610387303e-61
220
8.5303764492688809e-108
230
1
0
CIRCLE
5
108
100
AcDbEntity
8
0
100
AcDbCircle
10
-16.000000000000014
20
81.500000000000043
30
0
40
1.25
210
1.5540296610387303e-61
220
8.5303764492688809e-108
230
1
0
CIRCLE
5
109
100
AcDbEntity
8
0
100
AcDbCircle
10
-38.000000000000014
20
81.500000000000043
30
0
40
1.25
210
1.5540296610387303e-61
220
8.5303764492688809e-108
230
1
0
CIRCLE
5
110
100
AcDbEntity
8
0
100
AcDbCircle
10
-16.000000000000014
20
59.500000000000021
30
0
40
1.25
210
1.5540296610387303e-61
220
8.5303764492688809e-108
230
1
0
LWPOLYLINE
5
111
100
AcDbEntity
8
0
100
AcDbPolyline
90
4
70
1
43
0.0
10
-16.080000000000013
20
66.65000000000002
10
-16.080000000000013
20
77.450000000000017
10
-37.820000000000007
20
77.450000000000017
10
-37.820000000000007
20
66.65000000000002
0
CIRCLE
5
112
100
AcDbEntity
8
0
100
AcDbCircle
10
7.0830663959220708
20
55.000000000000007
30
0
40
6.0000000000000009
210
1.7960978851818057e-47
220
-7.1950500962542424e-79
230
1
0
LWPOLYLINE
5
113
100
AcDbEntity
8
0
100
AcDbPolyline
90
4
70
1
43
0.0
10
-53.99999804794799
20
98.000000000000142
10
131.000001952052
20
98.000000000000128
10
131.00000195205206
20
-149.00000222029985
10
-54.000000000047983
20
-149.00000222029985
0
CIRCLE
5
114
100
AcDbEntity
8
0
100
AcDbCircle
10
-9.9999999046323413
20
10.999546503556143
30
0
40
12.000000000000002
210
2.7160750105772354e-74
220
2.5775818837124472e-133
230
1
0
CIRCLE
5
115
100
AcDbEntity
8
0
100
AcDbCircle
10
-9.9999999046321779
20
-45.999999999999829
30
0
40
12.000000000000007
210
-5.7721101695721556e-61
220
1.1768437713684151e-106
230
1
0
CIRCLE
5
116
100
AcDbEntity
8
0
100
AcDbCircle
10
-9.9999999046324977
20
-102.99999999999991
30
0
40
11.999999999999995
210
4.3790577010149955e-47
220
-8.92821971255684e-93
230
1
0
CIRCLE
5
117
100
AcDbEntity
8
0
100
AcDbCircle
10
120.99999999995202
20
-136.00000222029988
30
0
40
2
210
2.2644432203707488e-60
220
-3.944304526105059e-31
230
1
0
CIRCLE
5
118
100
AcDbEntity
8
0
100
AcDbCircle
10
-41.000000000047983
20
41.999997779700131
30
0
40
2
210
2.2644432203707488e-60
220
-3.944304526105059e-31
230
1
0
CIRCLE
5
119
100
AcDbEntity
8
0
100
AcDbCircle
10
117.99999999995201
20
46.999997779700138
30
0
40
2
210
2.2644432203707488e-60
220
-3.944304526105059e-31
230
1
0
CIRCLE
5
120
100
AcDbEntity
8
0
100
AcDbCircle
10
15.999999999951999
20
84.999997779700124
30
0
40
2
210
2.2644432203707488e-60
220
-3.944304526105059e-31
230
1
0
CIRCLE
5
121
100
AcDbEntity
8
0
100
AcDbCircle
10
-9.000000000047983
20
-136.00000222029988
30
0
40
2
210
2.2644432203707488e-60
220
-3.944304526105059e-31
230
1
0
CIRCLE
5
122
100
AcDbEntity
8
0
100
AcDbCircle
10
65.090537240675147
20
-41.990537735942382
30
0
40
2.75
210
2.2644432203707485e-60
220
1.8112252362897089e-105
230
1
0
CIRCLE
5
123
100
AcDbEntity
8
0
100
AcDbCircle
10
78.894072985895903
20
-41.991268108655461
30
0
40
2.25
210
2.2644432203707494e-60
220
-3.944304526105059e-31
230
1
0
CIRCLE
5
124
100
AcDbEntity
8
0
100
AcDbCircle
10
-25.499999904632496
20
-87.499999999999915
30
0
40
1.5000000000000013
210
5.0781109431210266e-33
220
1.8858740599112012e-61
230
1
0
CIRCLE
5
125
100
AcDbEntity
8
0
100
AcDbCircle
10
5.5000000953674384
20
-118.50000000000003
30
0
40
1.5000000000000013
210
5.0781109431210266e-33
220
1.8858740599112012e-61
230
1
0
CIRCLE
5
126
100
AcDbEntity
8
0
100
AcDbCircle
10
5.5000000953675325
20
-87.500000000000014
30
0
40
1.5000000000000013
210
5.0781109431210266e-33
220
1.8858740599112012e-61
230
1
0
CIRCLE
5
127
100
AcDbEntity
8
0
100
AcDbCircle
10
-25.499999904632588
20
-118.49999999999993
30
0
40
1.5000000000000013
210
5.0781109431210266e-33
220
1.8858740599112012e-61
230
1
0
CIRCLE
5
128
100
AcDbEntity
8
0
100
AcDbCircle
10
5.5000000953678292
20
-30.500000000000043
30
0
40
1.5000000000000013
210
-2.8252742741865065e-31
220
-1.6011249514801707e-59
230
1
0
CIRCLE
5
129
100
AcDbEntity
8
0
100
AcDbCircle
10
5.5000000953676249
20
-61.50000000000005
30
0
40
1.5000000000000013
210
-2.8252742741865065e-31
220
-1.6011249514801707e-59
230
1
0
CIRCLE
5
130
100
AcDbEntity
8
0
100
AcDbCircle
10
-25.499999904632176
20
-30.499999999999829
30
0
40
1.5000000000000013
210
-2.8252742741865065e-31
220
-1.6011249514801707e-59
230
1
0
CIRCLE
5
131
100
AcDbEntity
8
0
100
AcDbCircle
10
-25.499999904632382
20
-61.499999999999837
30
0
40
1.5000000000000013
210
-2.8252742741865065e-31
220
-1.6011249514801707e-59
230
1
0
CIRCLE
5
132
100
AcDbEntity
8
0
100
AcDbCircle
10
-25.499999904632343
20
26.499546503556143
30
0
40
1.5000000000000013
210
4.6164616423257823e-32
220
-3.1040326991735058e-61
230
1
0
CIRCLE
5
133
100
AcDbEntity
8
0
100
AcDbCircle
10
-25.499999904632467
20
-4.5004534964438765
30
0
40
1.5000000000000013
210
4.6164616423257823e-32
220
-3.1039800119498291e-61
230
1
0
CIRCLE
5
134
100
AcDbEntity
8
0
100
AcDbCircle
10
5.5000000953676498
20
26.499546503556036
30
0
40
1.5000000000000013
210
4.6164616423257823e-32
220
-3.1040326991735058e-61
230
1
0
CIRCLE
5
135
100
AcDbEntity
8
0
100
AcDbCircle
10
5.5000000953675254
20
-4.500453496443992
30
0
40
1.5000000000000013
210
4.6164616423257823e-32
220
-3.1039800119498291e-61
230
1
0
ENDSEC
0
SECTION
2
OBJECTS
0
DICTIONARY
5
C
100
AcDbDictionary
3
ACAD_GROUP
350
D
3
ACAD_MLINESTYLE
350
17
0
DICTIONARY
5
D
100
AcDbDictionary
0
DICTIONARY
5
1A
330
C
100
AcDbDictionary
0
DICTIONARY
5
17
100
AcDbDictionary
0
ENDSEC
0
EOF
