0
SECTION
2
HEADER
9
$INSUNITS
70
4
9
$ACADVER
1
AC1014
9
$HANDSEED
5
FFFF
0
ENDSEC
0
SECTION
2
TABLES
0
TABLE
2
VPORT
5
8
100
AcDbSymbolTable
0
ENDTAB
0
TABLE
2
LTYPE
5
5
100
AcDbSymbolTable
0
LTYPE
5
14
100
AcDbSymbolTableRecord
100
AcDbLinetypeTableRecord
2
BYBLOCK
70
0
0
LTYPE
5
15
100
AcDbSymbolTableRecord
100
AcDbLinetypeTableRecord
2
BYLAYER
70
0
0
ENDTAB
0
TABLE
2
LAYER
5
2
100
AcDbSymbolTable
70
2
0
LAYER
5
50
100
AcDbSymbolTableRecord
100
AcDbLayerTableRecord
2
0
70
0
6
CONTINUOUS
0
ENDTAB
0
TABLE
2
STYLE
5
3
100
AcDbSymbolTable
70
1
0
STYLE
5
11
100
AcDbSymbolTableRecord
100
AcDbTextStyleTableRecord
2
STANDARD
70
0
0
ENDTAB
0
TABLE
2
VIEW
5
6
100
AcDbSymbolTable
70
0
0
ENDTAB
0
TABLE
2
UCS
5
7
100
AcDbSymbolTable
70
0
0
ENDTAB
0
TABLE
2
APPID
5
9
100
AcDbSymbolTable
70
2
0
APPID
5
12
100
AcDbSymbolTableRecord
100
AcDbRegAppTableRecord
2
ACAD
70
0
0
ENDTAB
0
TABLE
2
DIMSTYLE
5
A
100
AcDbSymbolTable
70
1
0
ENDTAB
0
TABLE
2
BLOCK_RECORD
5
1
100
AcDbSymbolTable
70
1
0
BLOCK_RECORD
5
1F
100
AcDbSymbolTableRecord
100
AcDbBlockTableRecord
2
*MODEL_SPACE
0
BLOCK_RECORD
5
1B
100
AcDbSymbolTableRecord
100
AcDbBlockTableRecord
2
*PAPER_SPACE
0
ENDTAB
0
ENDSEC
0
SECTION
2
BLOCKS
0
BLOCK
5
20
100
AcDbEntity
100
AcDbBlockBegin
2
*MODEL_SPACE
0
ENDBLK
5
21
100
AcDbEntity
100
AcDbBlockEnd
0
BLOCK
5
1C
100
AcDbEntity
100
AcDbBlockBegin
2
*PAPER_SPACE
0
ENDBLK
5
1D
100
AcDbEntity
100
AcDbBlockEnd
0
ENDSEC
0
SECTION
2
ENTITIES
0
LWPOLYLINE
5
100
100
AcDbEntity
8
0
100
AcDbPolyline
90
6
70
1
43
0.0
10
-7.0000000619431324
20
-112.26794908514272
10
-10.000000123886061
20
-110.53589838486215
10
-13.00000006194313
20
-112.26794929971933
10
-12.999999938057268
20
-115.73205091485707
10
-9.9999998761143374
20
-117.46410161513765
10
-6.9999999380572708
20
-115.7320507002805
0
LWPOLYLINE
5
101
100
AcDbEntity
8
0
100
AcDbPolyline
90
6
70
1
43
0.0
10
-16.000000061943133
20
-112.26794908514272
10
-19.000000123886064
20
-110.53589838486215
10
-22.000000061943133
20
-112.26794929971933
10
-21.999999938057265
20
-115.73205091485707
10
-18.999999876114341
20
-117.46410161513765
10
-15.999999938057272
20
-115.7320507002805
0
LWPOLYLINE
5
102
100
AcDbEntity
8
0
100
AcDbPolyline
90
6
70
1
43
0.0
10
-25.000000061943133
20
-112.26794908514272
10
-28.000000123886064
20
-110.53589838486215
10
-31.000000061943133
20
-112.26794929971933
10
-30.999999938057272
20
-115.73205091485707
10
-27.999999876114341
20
-117.46410161513765
10
-24.999999938057272
20
-115.7320507002805
0
LWPOLYLINE
5
103
100
AcDbEntity
8
0
100
AcDbPolyline
90
6
70
1
43
0.0
10
-7.0000000619431324
20
-101.7679490851427
10
-10.000000123886061
20
-100.03589838486214
10
-13.00000006194313
20
-101.76794929971933
10
-12.999999938057268
20
-105.23205091485707
10
-9.9999998761143374
20
-106.96410161513765
10
-6.9999999380572708
20
-105.23205070028048
0
LWPOLYLINE
5
104
100
AcDbEntity
8
0
100
AcDbPolyline
90
6
70
1
43
0.0
10
-16.000000061943133
20
-101.7679490851427
10
-19.000000123886064
20
-100.03589838486214
10
-22.000000061943133
20
-101.76794929971933
10
-21.999999938057265
20
-105.23205091485707
10
-18.999999876114341
20
-106.96410161513765
10
-15.999999938057272
20
-105.23205070028048
0
LWPOLYLINE
5
105
100
AcDbEntity
8
0
100
AcDbPolyline
90
6
70
1
43
0.0
10
-25.000000061943133
20
-101.7679490851427
10
-28.000000123886064
20
-100.03589838486214
10
-31.000000061943133
20
-101.76794929971933
10
-30.999999938057272
20
-105.23205091485707
10
-27.999999876114341
20
-106.96410161513765
10
-24.999999938057272
20
-105.23205070028048
0
LWPOLYLINE
5
106
100
AcDbEntity
8
0
100
AcDbPolyline
90
6
70
1
43
0.0
10
-7.0000000619431324
20
-91.267949085142703
10
-10.000000123886061
20
-89.535898384862122
10
-13.00000006194313
20
-91.267949299719334
10
-12.999999938057268
20
-94.732050914857069
10
-9.9999998761143374
20
-96.464101615137636
10
-6.9999999380572708
20
-94.732050700280467
0
LWPOLYLINE
5
107
100
AcDbEntity
8
0
100
AcDbPolyline
90
6
70
1
43
0.0
10
-16.000000061943133
20
-91.267949085142703
10
-19.000000123886064
20
-89.535898384862122
10
-22.000000061943133
20
-91.267949299719334
10
-21.999999938057265
20
-94.732050914857069
10
-18.999999876114341
20
-96.464101615137636
10
-15.999999938057272
20
-94.732050700280467
0
LWPOLYLINE
5
108
100
AcDbEntity
8
0
100
AcDbPolyline
90
6
70
1
43
0.0
10
-25.000000061943133
20
-91.267949085142703
10
-28.000000123886064
20
-89.535898384862122
10
-31.000000061943133
20
-91.267949299719334
10
-30.999999938057272
20
-94.732050914857069
10
-27.999999876114341
20
-96.464101615137636
10
-24.999999938057272
20
-94.732050700280467
0
LWPOLYLINE
5
109
100
AcDbEntity
8
0
100
AcDbPolyline
90
6
70
1
43
0.0
10
-7.0000000619431324
20
-80.767949085142732
10
-10.000000123886061
20
-79.035898384862151
10
-13.00000006194313
20
-80.767949299719319
10
-12.999999938057268
20
-84.232050914857098
10
-9.9999998761143374
20
-85.96410161513765
10
-6.9999999380572708
20
-84.232050700280467
0
LWPOLYLINE
5
110
100
AcDbEntity
8
0
100
AcDbPolyline
90
6
70
1
43
0.0
10
-16.000000061943133
20
-80.767949085142732
10
-19.000000123886064
20
-79.035898384862151
10
-22.000000061943133
20
-80.767949299719319
10
-21.999999938057265
20
-84.232050914857098
10
-18.999999876114341
20
-85.96410161513765
10
-15.999999938057272
20
-84.232050700280467
0
LWPOLYLINE
5
111
100
AcDbEntity
8
0
100
AcDbPolyline
90
6
70
1
43
0.0
10
-25.000000061943133
20
-80.767949085142732
10
-28.000000123886064
20
-79.035898384862151
10
-31.000000061943133
20
-80.767949299719319
10
-30.999999938057272
20
-84.232050914857098
10
-27.999999876114341
20
-85.96410161513765
10
-24.999999938057272
20
-84.232050700280467
0
LWPOLYLINE
5
112
100
AcDbEntity
8
0
100
AcDbPolyline
90
6
70
1
43
0.0
10
-7.0000000619431324
20
-70.267949085142718
10
-10.000000123886061
20
-68.535898384862136
10
-13.00000006194313
20
-70.267949299719319
10
-12.999999938057268
20
-73.732050914857069
10
-9.9999998761143374
20
-75.46410161513765
10
-6.9999999380572708
20
-73.732050700280467
0
LWPOLYLINE
5
113
100
AcDbEntity
8
0
100
AcDbPolyline
90
6
70
1
43
0.0
10
-16.000000061943133
20
-70.267949085142718
10
-19.000000123886064
20
-68.535898384862136
10
-22.000000061943133
20
-70.267949299719319
10
-21.999999938057265
20
-73.732050914857069
10
-18.999999876114341
20
-75.46410161513765
10
-15.999999938057272
20
-73.732050700280467
0
LWPOLYLINE
5
114
100
AcDbEntity
8
0
100
AcDbPolyline
90
6
70
1
43
0.0
10
-25.000000061943133
20
-70.267949085142718
10
-28.000000123886064
20
-68.535898384862136
10
-31.000000061943133
20
-70.267949299719319
10
-30.999999938057272
20
-73.732050914857069
10
-27.999999876114341
20
-75.46410161513765
10
-24.999999938057272
20
-73.732050700280467
0
LWPOLYLINE
5
115
100
AcDbEntity
8
0
100
AcDbPolyline
90
6
70
1
43
0.0
10
-7.0000000619431324
20
-59.767949085142718
10
-10.000000123886061
20
-58.035898384862143
10
-13.00000006194313
20
-59.767949299719319
10
-12.999999938057268
20
-63.232050914857076
10
-9.9999998761143374
20
-64.96410161513765
10
-6.9999999380572708
20
-63.232050700280467
0
LWPOLYLINE
5
116
100
AcDbEntity
8
0
100
AcDbPolyline
90
6
70
1
43
0.0
10
-16.000000061943133
20
-59.767949085142718
10
-19.000000123886064
20
-58.035898384862143
10
-22.000000061943133
20
-59.767949299719319
10
-21.999999938057265
20
-63.232050914857076
10
-18.999999876114341
20
-64.96410161513765
10
-15.999999938057272
20
-63.232050700280467
0
LWPOLYLINE
5
117
100
AcDbEntity
8
0
100
AcDbPolyline
90
6
70
1
43
0.0
10
-25.000000061943133
20
-59.767949085142718
10
-28.000000123886064
20
-58.035898384862143
10
-31.000000061943133
20
-59.767949299719319
10
-30.999999938057272
20
-63.232050914857076
10
-27.999999876114341
20
-64.96410161513765
10
-24.999999938057272
20
-63.232050700280467
0
LWPOLYLINE
5
118
100
AcDbEntity
8
0
100
AcDbPolyline
90
6
70
1
43
0.0
10
-7.0000000619431324
20
-49.267949085142718
10
-10.000000123886061
20
-47.535898384862143
10
-13.00000006194313
20
-49.267949299719326
10
-12.999999938057268
20
-52.732050914857076
10
-9.9999998761143374
20
-54.46410161513765
10
-6.9999999380572708
20
-52.732050700280475
0
LWPOLYLINE
5
119
100
AcDbEntity
8
0
100
AcDbPolyline
90
6
70
1
43
0.0
10
-16.000000061943133
20
-49.267949085142718
10
-19.000000123886064
20
-47.535898384862143
10
-22.000000061943133
20
-49.267949299719326
10
-21.999999938057265
20
-52.732050914857076
10
-18.999999876114341
20
-54.46410161513765
10
-15.999999938057272
20
-52.732050700280475
0
LWPOLYLINE
5
120
100
AcDbEntity
8
0
100
AcDbPolyline
90
6
70
1
43
0.0
10
-25.000000061943133
20
-49.267949085142718
10
-28.000000123886064
20
-47.535898384862143
10
-31.000000061943133
20
-49.267949299719326
10
-30.999999938057272
20
-52.732050914857076
10
-27.999999876114341
20
-54.46410161513765
10
-24.999999938057272
20
-52.732050700280475
0
LWPOLYLINE
5
121
100
AcDbEntity
8
0
100
AcDbPolyline
90
6
70
1
43
0.0
10
-7.0000000619431324
20
-38.76794908514271
10
-10.000000123886061
20
-37.035898384862136
10
-13.00000006194313
20
-38.767949299719319
10
-12.999999938057268
20
-42.232050914857069
10
-9.9999998761143374
20
-43.964101615137643
10
-6.9999999380572708
20
-42.232050700280467
0
LWPOLYLINE
5
122
100
AcDbEntity
8
0
100
AcDbPolyline
90
6
70
1
43
0.0
10
-16.000000061943133
20
-38.76794908514271
10
-19.000000123886064
20
-37.035898384862136
10
-22.000000061943133
20
-38.767949299719319
10
-21.999999938057265
20
-42.232050914857069
10
-18.999999876114341
20
-43.964101615137643
10
-15.999999938057272
20
-42.232050700280467
0
LWPOLYLINE
5
123
100
AcDbEntity
8
0
100
AcDbPolyline
90
6
70
1
43
0.0
10
-25.000000061943133
20
-38.76794908514271
10
-28.000000123886064
20
-37.035898384862136
10
-31.000000061943133
20
-38.767949299719319
10
-30.999999938057272
20
-42.232050914857069
10
-27.999999876114341
20
-43.964101615137643
10
-24.999999938057272
20
-42.232050700280467
0
LWPOLYLINE
5
124
100
AcDbEntity
8
0
100
AcDbPolyline
90
6
70
1
43
0.0
10
-7.0000000619431324
20
-28.267949085142714
10
-10.000000123886061
20
-26.53589838486214
10
-13.00000006194313
20
-28.267949299719319
10
-12.999999938057268
20
-31.732050914857073
10
-9.9999998761143374
20
-33.46410161513765
10
-6.9999999380572708
20
-31.732050700280467
0
LWPOLYLINE
5
125
100
AcDbEntity
8
0
100
AcDbPolyline
90
6
70
1
43
0.0
10
-16.000000061943133
20
-28.267949085142714
10
-19.000000123886064
20
-26.53589838486214
10
-22.000000061943133
20
-28.267949299719319
10
-21.999999938057265
20
-31.732050914857073
10
-18.999999876114341
20
-33.46410161513765
10
-15.999999938057272
20
-31.732050700280467
0
LWPOLYLINE
5
126
100
AcDbEntity
8
0
100
AcDbPolyline
90
6
70
1
43
0.0
10
-25.000000061943133
20
-28.267949085142714
10
-28.000000123886064
20
-26.53589838486214
10
-31.000000061943133
20
-28.267949299719319
10
-30.999999938057272
20
-31.732050914857073
10
-27.999999876114341
20
-33.46410161513765
10
-24.999999938057272
20
-31.732050700280467
0
LWPOLYLINE
5
127
100
AcDbEntity
8
0
100
AcDbPolyline
90
6
70
1
43
0.0
10
-7.0000000619431324
20
-17.767949085142718
10
-10.000000123886061
20
-16.035898384862143
10
-13.00000006194313
20
-17.767949299719319
10
-12.999999938057268
20
-21.232050914857076
10
-9.9999998761143374
20
-22.96410161513765
10
-6.9999999380572708
20
-21.232050700280467
0
LWPOLYLINE
5
128
100
AcDbEntity
8
0
100
AcDbPolyline
90
6
70
1
43
0.0
10
-16.000000061943133
20
-17.767949085142718
10
-19.000000123886064
20
-16.035898384862143
10
-22.000000061943133
20
-17.767949299719319
10
-21.999999938057265
20
-21.232050914857076
10
-18.999999876114341
20
-22.96410161513765
10
-15.999999938057272
20
-21.232050700280467
0
LWPOLYLINE
5
129
100
AcDbEntity
8
0
100
AcDbPolyline
90
6
70
1
43
0.0
10
-25.000000061943133
20
-17.767949085142718
10
-28.000000123886064
20
-16.035898384862143
10
-31.000000061943133
20
-17.767949299719319
10
-30.999999938057272
20
-21.232050914857076
10
-27.999999876114341
20
-22.96410161513765
10
-24.999999938057272
20
-21.232050700280467
0
LWPOLYLINE
5
130
100
AcDbEntity
8
0
100
AcDbPolyline
90
6
70
1
43
0.0
10
-7.0000000619431324
20
-7.2679490851427131
10
-10.000000123886061
20
-5.535898384862139
10
-13.00000006194313
20
-7.2679492997193185
10
-12.999999938057268
20
-10.732050914857073
10
-9.9999998761143374
20
-12.464101615137647
10
-6.9999999380572708
20
-10.732050700280467
0
LWPOLYLINE
5
131
100
AcDbEntity
8
0
100
AcDbPolyline
90
6
70
1
43
0.0
10
-16.000000061943133
20
-7.2679490851427131
10
-19.000000123886064
20
-5.535898384862139
10
-22.000000061943133
20
-7.2679492997193185
10
-21.999999938057265
20
-10.732050914857073
10
-18.999999876114341
20
-12.464101615137647
10
-15.999999938057272
20
-10.732050700280467
0
LWPOLYLINE
5
132
100
AcDbEntity
8
0
100
AcDbPolyline
90
6
70
1
43
0.0
10
-25.000000061943133
20
-7.2679490851427131
10
-28.000000123886064
20
-5.535898384862139
10
-31.000000061943133
20
-7.2679492997193185
10
-30.999999938057272
20
-10.732050914857073
10
-27.999999876114341
20
-12.464101615137647
10
-24.999999938057272
20
-10.732050700280467
0
LWPOLYLINE
5
133
100
AcDbEntity
8
0
100
AcDbPolyline
90
6
70
1
43
0.0
10
-7.0000000619431324
20
3.2320509148572873
10
-10.000000123886061
20
4.9641016151378619
10
-13.00000006194313
20
3.232050700280682
10
-12.999999938057268
20
-0.23205091485707152
10
-9.9999998761143374
20
-1.9641016151376445
10
-6.9999999380572708
20
-0.23205070028046615
0
LWPOLYLINE
5
134
100
AcDbEntity
8
0
100
AcDbPolyline
90
6
70
1
43
0.0
10
-16.000000061943133
20
3.2320509148572873
10
-19.000000123886064
20
4.9641016151378619
10
-22.000000061943133
20
3.232050700280682
10
-21.999999938057265
20
-0.23205091485707152
10
-18.999999876114341
20
-1.9641016151376445
10
-15.999999938057272
20
-0.23205070028046615
0
LWPOLYLINE
5
135
100
AcDbEntity
8
0
100
AcDbPolyline
90
6
70
1
43
0.0
10
-25.000000061943133
20
3.2320509148572873
10
-28.000000123886064
20
4.9641016151378619
10
-31.000000061943133
20
3.232050700280682
10
-30.999999938057272
20
-0.23205091485707152
10
-27.999999876114341
20
-1.9641016151376445
10
-24.999999938057272
20
-0.23205070028046615
0
LWPOLYLINE
5
136
100
AcDbEntity
8
0
100
AcDbPolyline
90
6
70
1
43
0.0
10
-7.0000000619431324
20
13.732050914857288
10
-10.000000123886061
20
15.464101615137862
10
-13.00000006194313
20
13.732050700280682
10
-12.999999938057268
20
10.267949085142929
10
-9.9999998761143374
20
8.5358983848623566
10
-6.9999999380572708
20
10.267949299719534
0
LWPOLYLINE
5
137
100
AcDbEntity
8
0
100
AcDbPolyline
90
6
70
1
43
0.0
10
-16.000000061943133
20
13.732050914857288
10
-19.000000123886064
20
15.464101615137862
10
-22.000000061943133
20
13.732050700280682
10
-21.999999938057265
20
10.267949085142929
10
-18.999999876114341
20
8.5358983848623566
10
-15.999999938057272
20
10.267949299719534
0
LWPOLYLINE
5
138
100
AcDbEntity
8
0
100
AcDbPolyline
90
6
70
1
43
0.0
10
-25.000000061943133
20
13.732050914857288
10
-28.000000123886064
20
15.464101615137862
10
-31.000000061943133
20
13.732050700280682
10
-30.999999938057272
20
10.267949085142929
10
-27.999999876114341
20
8.5358983848623566
10
-24.999999938057272
20
10.267949299719534
0
CIRCLE
5
139
100
AcDbEntity
8
0
100
AcDbCircle
10
-9.000000000000755
20
31.999999999999964
30
0
40
2
210
0
220
0
230
1
0
CIRCLE
5
140
100
AcDbEntity
8
0
100
AcDbCircle
10
-20.000000000000142
20
-133.99999999999989
30
0
40
6.4167500000000066
210
3.944304526105059e-31
220
-1.4343757432341272e-90
230
1
0
LWPOLYLINE
5
141
100
AcDbEntity
8
0
100
AcDbPolyline
90
4
70
1
43
0.0
10
-7.5495165674510645e-13
20
-149
10
-40.000000000000753
20
-148.99999999999989
10
-40.000000000000206
20
54.000000000000114
10
-2.0231039030497781e-13
20
54
0
ENDSEC
0
SECTION
2
OBJECTS
0
DICTIONARY
5
C
100
AcDbDictionary
3
ACAD_GROUP
350
D
3
ACAD_MLINESTYLE
350
17
0
DICTIONARY
5
D
100
AcDbDictionary
0
DICTIONARY
5
1A
330
C
100
AcDbDictionary
0
DICTIONARY
5
17
100
AcDbDictionary
0
ENDSEC
0
EOF
