0
SECTION
2
HEADER
9
$INSUNITS
70
4
9
$ACADVER
1
AC1014
9
$HANDSEED
5
FFFF
0
ENDSEC
0
SECTION
2
TABLES
0
TABLE
2
VPORT
5
8
100
AcDbSymbolTable
0
ENDTAB
0
TABLE
2
LTYPE
5
5
100
AcDbSymbolTable
0
LTYPE
5
14
100
AcDbSymbolTableRecord
100
AcDbLinetypeTableRecord
2
BYBLOCK
70
0
0
LTYPE
5
15
100
AcDbSymbolTableRecord
100
AcDbLinetypeTableRecord
2
BYLAYER
70
0
0
ENDTAB
0
TABLE
2
LAYER
5
2
100
AcDbSymbolTable
70
2
0
LAYER
5
50
100
AcDbSymbolTableRecord
100
AcDbLayerTableRecord
2
0
70
0
6
CONTINUOUS
0
ENDTAB
0
TABLE
2
STYLE
5
3
100
AcDbSymbolTable
70
1
0
STYLE
5
11
100
AcDbSymbolTableRecord
100
AcDbTextStyleTableRecord
2
STANDARD
70
0
0
ENDTAB
0
TABLE
2
VIEW
5
6
100
AcDbSymbolTable
70
0
0
ENDTAB
0
TABLE
2
UCS
5
7
100
AcDbSymbolTable
70
0
0
ENDTAB
0
TABLE
2
APPID
5
9
100
AcDbSymbolTable
70
2
0
APPID
5
12
100
AcDbSymbolTableRecord
100
AcDbRegAppTableRecord
2
ACAD
70
0
0
ENDTAB
0
TABLE
2
DIMSTYLE
5
A
100
AcDbSymbolTable
70
1
0
ENDTAB
0
TABLE
2
BLOCK_RECORD
5
1
100
AcDbSymbolTable
70
1
0
BLOCK_RECORD
5
1F
100
AcDbSymbolTableRecord
100
AcDbBlockTableRecord
2
*MODEL_SPACE
0
BLOCK_RECORD
5
1B
100
AcDbSymbolTableRecord
100
AcDbBlockTableRecord
2
*PAPER_SPACE
0
ENDTAB
0
ENDSEC
0
SECTION
2
BLOCKS
0
BLOCK
5
20
100
AcDbEntity
100
AcDbBlockBegin
2
*MODEL_SPACE
0
ENDBLK
5
21
100
AcDbEntity
100
AcDbBlockEnd
0
BLOCK
5
1C
100
AcDbEntity
100
AcDbBlockBegin
2
*PAPER_SPACE
0
ENDBLK
5
1D
100
AcDbEntity
100
AcDbBlockEnd
0
ENDSEC
0
SECTION
2
ENTITIES
0
LWPOLYLINE
5
100
100
AcDbEntity
8
0
100
AcDbPolyline
90
6
70
1
43
0.0
10
12.999999999999785
20
15.732050807568978
10
9.9999999999997957
20
17.464101615137864
10
6.9999999999997931
20
15.732050807568996
10
6.9999999999997842
20
12.267949192431242
10
9.999999999999778
20
10.535898384862357
10
12.99999999999978
20
12.267949192431225
0
LWPOLYLINE
5
101
100
AcDbEntity
8
0
100
AcDbPolyline
90
6
70
1
43
0.0
10
21.999999999999787
20
15.732050807568978
10
18.999999999999797
20
17.464101615137864
10
15.999999999999794
20
15.732050807568996
10
15.999999999999785
20
12.267949192431242
10
18.999999999999776
20
10.535898384862357
10
21.99999999999978
20
12.267949192431225
0
LWPOLYLINE
5
102
100
AcDbEntity
8
0
100
AcDbPolyline
90
6
70
1
43
0.0
10
30.999999999999783
20
15.732050807568978
10
27.999999999999794
20
17.464101615137864
10
24.99999999999979
20
15.732050807568996
10
24.999999999999783
20
12.267949192431242
10
27.999999999999776
20
10.535898384862357
10
30.99999999999978
20
12.267949192431225
0
LWPOLYLINE
5
103
100
AcDbEntity
8
0
100
AcDbPolyline
90
6
70
1
43
0.0
10
12.999999999999785
20
26.732050807568974
10
9.9999999999997957
20
28.46410161513786
10
6.9999999999997931
20
26.732050807568992
10
6.9999999999997842
20
23.267949192431239
10
9.999999999999778
20
21.535898384862353
10
12.99999999999978
20
23.267949192431221
0
LWPOLYLINE
5
104
100
AcDbEntity
8
0
100
AcDbPolyline
90
6
70
1
43
0.0
10
21.999999999999787
20
26.732050807568974
10
18.999999999999797
20
28.46410161513786
10
15.999999999999794
20
26.732050807568992
10
15.999999999999785
20
23.267949192431239
10
18.999999999999776
20
21.535898384862353
10
21.99999999999978
20
23.267949192431221
0
LWPOLYLINE
5
105
100
AcDbEntity
8
0
100
AcDbPolyline
90
6
70
1
43
0.0
10
30.999999999999783
20
26.732050807568974
10
27.999999999999794
20
28.46410161513786
10
24.99999999999979
20
26.732050807568992
10
24.999999999999783
20
23.267949192431239
10
27.999999999999776
20
21.535898384862353
10
30.99999999999978
20
23.267949192431221
0
LWPOLYLINE
5
106
100
AcDbEntity
8
0
100
AcDbPolyline
90
6
70
1
43
0.0
10
12.999999999999785
20
37.732050807568967
10
9.9999999999997957
20
39.464101615137857
10
6.9999999999997931
20
37.732050807568989
10
6.9999999999997842
20
34.267949192431232
10
9.999999999999778
20
32.53589838486235
10
12.99999999999978
20
34.267949192431217
0
LWPOLYLINE
5
107
100
AcDbEntity
8
0
100
AcDbPolyline
90
6
70
1
43
0.0
10
21.999999999999787
20
37.732050807568967
10
18.999999999999797
20
39.464101615137857
10
15.999999999999794
20
37.732050807568989
10
15.999999999999785
20
34.267949192431232
10
18.999999999999776
20
32.53589838486235
10
21.99999999999978
20
34.267949192431217
0
LWPOLYLINE
5
108
100
AcDbEntity
8
0
100
AcDbPolyline
90
6
70
1
43
0.0
10
30.999999999999783
20
37.732050807568967
10
27.999999999999794
20
39.464101615137857
10
24.99999999999979
20
37.732050807568989
10
24.999999999999783
20
34.267949192431232
10
27.999999999999776
20
32.53589838486235
10
30.99999999999978
20
34.267949192431217
0
LWPOLYLINE
5
109
100
AcDbEntity
8
0
100
AcDbPolyline
90
6
70
1
43
0.0
10
12.999999999999785
20
48.732050807568967
10
9.9999999999997957
20
50.464101615137849
10
6.9999999999997931
20
48.732050807568982
10
6.9999999999997842
20
45.267949192431232
10
9.999999999999778
20
43.53589838486235
10
12.99999999999978
20
45.267949192431217
0
LWPOLYLINE
5
110
100
AcDbEntity
8
0
100
AcDbPolyline
90
6
70
1
43
0.0
10
21.999999999999787
20
48.732050807568967
10
18.999999999999797
20
50.464101615137849
10
15.999999999999794
20
48.732050807568982
10
15.999999999999785
20
45.267949192431232
10
18.999999999999776
20
43.53589838486235
10
21.99999999999978
20
45.267949192431217
0
LWPOLYLINE
5
111
100
AcDbEntity
8
0
100
AcDbPolyline
90
6
70
1
43
0.0
10
30.999999999999783
20
48.732050807568967
10
27.999999999999794
20
50.464101615137849
10
24.99999999999979
20
48.732050807568982
10
24.999999999999783
20
45.267949192431232
10
27.999999999999776
20
43.53589838486235
10
30.99999999999978
20
45.267949192431217
0
LWPOLYLINE
5
112
100
AcDbEntity
8
0
100
AcDbPolyline
90
6
70
1
43
0.0
10
21.999999999999787
20
59.732050807568974
10
18.999999999999797
20
61.464101615137857
10
15.999999999999794
20
59.732050807568989
10
15.999999999999785
20
56.267949192431239
10
18.999999999999776
20
54.53589838486235
10
21.99999999999978
20
56.267949192431217
0
LWPOLYLINE
5
113
100
AcDbEntity
8
0
100
AcDbPolyline
90
6
70
1
43
0.0
10
30.999999999999783
20
59.732050807568974
10
27.999999999999794
20
61.464101615137857
10
24.99999999999979
20
59.732050807568989
10
24.999999999999783
20
56.267949192431239
10
27.999999999999776
20
54.53589838486235
10
30.99999999999978
20
56.267949192431217
0
LWPOLYLINE
5
114
100
AcDbEntity
8
0
100
AcDbPolyline
90
6
70
1
43
0.0
10
21.999999999999787
20
70.732050807568982
10
18.999999999999797
20
72.464101615137864
10
15.999999999999794
20
70.732050807568996
10
15.999999999999785
20
67.267949192431246
10
18.999999999999776
20
65.53589838486235
10
21.99999999999978
20
67.267949192431217
0
LWPOLYLINE
5
115
100
AcDbEntity
8
0
100
AcDbPolyline
90
6
70
1
43
0.0
10
30.999999999999783
20
70.732050807568982
10
27.999999999999794
20
72.464101615137864
10
24.99999999999979
20
70.732050807568996
10
24.999999999999783
20
67.267949192431246
10
27.999999999999776
20
65.53589838486235
10
30.99999999999978
20
67.267949192431217
0
LWPOLYLINE
5
116
100
AcDbEntity
8
0
100
AcDbPolyline
90
6
70
1
43
0.0
10
12.999999999999785
20
81.732050807568982
10
9.9999999999997957
20
83.464101615137864
10
6.9999999999997931
20
81.732050807568996
10
6.9999999999997842
20
78.267949192431246
10
9.999999999999778
20
76.53589838486235
10
12.99999999999978
20
78.267949192431217
0
LWPOLYLINE
5
117
100
AcDbEntity
8
0
100
AcDbPolyline
90
6
70
1
43
0.0
10
21.999999999999787
20
81.732050807568982
10
18.999999999999797
20
83.464101615137864
10
15.999999999999794
20
81.732050807568996
10
15.999999999999785
20
78.267949192431246
10
18.999999999999776
20
76.53589838486235
10
21.99999999999978
20
78.267949192431217
0
LWPOLYLINE
5
118
100
AcDbEntity
8
0
100
AcDbPolyline
90
6
70
1
43
0.0
10
30.999999999999783
20
81.732050807568982
10
27.999999999999794
20
83.464101615137864
10
24.99999999999979
20
81.732050807568996
10
24.999999999999783
20
78.267949192431246
10
27.999999999999776
20
76.53589838486235
10
30.99999999999978
20
78.267949192431217
0
LWPOLYLINE
5
119
100
AcDbEntity
8
0
100
AcDbPolyline
90
6
70
1
43
0.0
10
12.999999999999785
20
92.732050807568967
10
9.9999999999997957
20
94.464101615137849
10
6.9999999999997931
20
92.732050807568982
10
6.9999999999997842
20
89.267949192431232
10
9.999999999999778
20
87.53589838486235
10
12.99999999999978
20
89.267949192431217
0
LWPOLYLINE
5
120
100
AcDbEntity
8
0
100
AcDbPolyline
90
6
70
1
43
0.0
10
21.999999999999787
20
92.732050807568967
10
18.999999999999797
20
94.464101615137849
10
15.999999999999794
20
92.732050807568982
10
15.999999999999785
20
89.267949192431232
10
18.999999999999776
20
87.53589838486235
10
21.99999999999978
20
89.267949192431217
0
LWPOLYLINE
5
121
100
AcDbEntity
8
0
100
AcDbPolyline
90
6
70
1
43
0.0
10
30.999999999999783
20
92.732050807568967
10
27.999999999999794
20
94.464101615137849
10
24.99999999999979
20
92.732050807568982
10
24.999999999999783
20
89.267949192431232
10
27.999999999999776
20
87.53589838486235
10
30.99999999999978
20
89.267949192431217
0
LWPOLYLINE
5
122
100
AcDbEntity
8
0
100
AcDbPolyline
90
6
70
1
43
0.0
10
12.999999999999785
20
103.73205080756897
10
9.9999999999997957
20
105.46410161513788
10
6.9999999999997931
20
103.73205080756901
10
6.9999999999997842
20
100.26794919243123
10
9.999999999999778
20
98.535898384862364
10
12.99999999999978
20
100.26794919243123
0
LWPOLYLINE
5
123
100
AcDbEntity
8
0
100
AcDbPolyline
90
6
70
1
43
0.0
10
21.999999999999787
20
103.73205080756897
10
18.999999999999797
20
105.46410161513788
10
15.999999999999794
20
103.73205080756901
10
15.999999999999785
20
100.26794919243123
10
18.999999999999776
20
98.535898384862364
10
21.99999999999978
20
100.26794919243123
0
LWPOLYLINE
5
124
100
AcDbEntity
8
0
100
AcDbPolyline
90
6
70
1
43
0.0
10
30.999999999999783
20
103.73205080756897
10
27.999999999999794
20
105.46410161513788
10
24.99999999999979
20
103.73205080756901
10
24.999999999999783
20
100.26794919243123
10
27.999999999999776
20
98.535898384862364
10
30.99999999999978
20
100.26794919243123
0
LWPOLYLINE
5
125
100
AcDbEntity
8
0
100
AcDbPolyline
90
6
70
1
43
0.0
10
12.999999999999785
20
114.73205080756898
10
9.9999999999997957
20
116.46410161513786
10
6.9999999999997931
20
114.732050807569
10
6.9999999999997842
20
111.26794919243125
10
9.999999999999778
20
109.53589838486236
10
12.99999999999978
20
111.26794919243123
0
LWPOLYLINE
5
126
100
AcDbEntity
8
0
100
AcDbPolyline
90
6
70
1
43
0.0
10
21.999999999999787
20
114.73205080756898
10
18.999999999999797
20
116.46410161513786
10
15.999999999999794
20
114.732050807569
10
15.999999999999785
20
111.26794919243125
10
18.999999999999776
20
109.53589838486236
10
21.99999999999978
20
111.26794919243123
0
LWPOLYLINE
5
127
100
AcDbEntity
8
0
100
AcDbPolyline
90
6
70
1
43
0.0
10
30.999999999999783
20
114.73205080756898
10
27.999999999999794
20
116.46410161513786
10
24.99999999999979
20
114.732050807569
10
24.999999999999783
20
111.26794919243125
10
27.999999999999776
20
109.53589838486236
10
30.99999999999978
20
111.26794919243123
0
LWPOLYLINE
5
128
100
AcDbEntity
8
0
100
AcDbPolyline
90
6
70
1
43
0.0
10
12.999999999999785
20
125.73205080756898
10
9.9999999999997957
20
127.46410161513786
10
6.9999999999997931
20
125.732050807569
10
6.9999999999997842
20
122.26794919243125
10
9.999999999999778
20
120.53589838486235
10
12.99999999999978
20
122.26794919243122
0
LWPOLYLINE
5
129
100
AcDbEntity
8
0
100
AcDbPolyline
90
6
70
1
43
0.0
10
21.999999999999787
20
125.73205080756898
10
18.999999999999797
20
127.46410161513786
10
15.999999999999794
20
125.732050807569
10
15.999999999999785
20
122.26794919243125
10
18.999999999999776
20
120.53589838486235
10
21.99999999999978
20
122.26794919243122
0
LWPOLYLINE
5
130
100
AcDbEntity
8
0
100
AcDbPolyline
90
6
70
1
43
0.0
10
30.999999999999783
20
125.73205080756898
10
27.999999999999794
20
127.46410161513786
10
24.99999999999979
20
125.732050807569
10
24.999999999999783
20
122.26794919243125
10
27.999999999999776
20
120.53589838486235
10
30.99999999999978
20
122.26794919243122
0
CIRCLE
5
131
100
AcDbEntity
8
0
100
AcDbCircle
10
9.0000000000007123
20
67
30
0
40
2
210
3.944304526105059e-31
220
-3.4881207009346771e-105
230
1
0
CIRCLE
5
132
100
AcDbEntity
8
0
100
AcDbCircle
10
8.6144331915147347
20
-45.018626086864764
30
0
40
2
210
3.944304526105059e-31
220
-6.9762414018693541e-105
230
1
0
CIRCLE
5
133
100
AcDbEntity
8
0
100
AcDbCircle
10
14.999999999999661
20
-8.7655004894317141
30
0
40
1.9999999999999982
210
-2.4250921718570677e-88
220
2.4892061111444567e-60
230
1
0
CIRCLE
5
134
100
AcDbEntity
8
0
100
AcDbCircle
10
14.999999999999661
20
-26.765500757652564
30
0
40
1.9999999999999982
210
-2.4250921718570685e-88
220
2.4892061111444567e-60
230
1
0
CIRCLE
5
135
100
AcDbEntity
8
0
100
AcDbCircle
10
26.582335084789833
20
-76.999981306634524
30
0
40
1.5
210
1.1227019121622778e-76
220
6.9191847400132449e-109
230
1
0
CIRCLE
5
136
100
AcDbEntity
8
0
100
AcDbCircle
10
26.58233508478984
20
-99.999981306634496
30
0
40
1.5
210
1.1227019121622778e-76
220
6.9191847400132449e-109
230
1
0
CIRCLE
5
137
100
AcDbEntity
8
0
100
AcDbCircle
10
11.58233471226081
20
-76.999981306634524
30
0
40
1.5
210
1.1227019121622778e-76
220
6.9191847400132449e-109
230
1
0
CIRCLE
5
138
100
AcDbEntity
8
0
100
AcDbCircle
10
11.58233471226081
20
-99.999981306634496
30
0
40
1.5
210
1.1227019121622778e-76
220
6.9191847400132449e-109
230
1
0
LWPOLYLINE
5
139
100
AcDbEntity
8
0
100
AcDbPolyline
90
4
70
1
43
0.0
10
-2.1760371282653068e-13
20
148
10
39.99999999999978
20
148.00000000000014
10
40.000000000000711
20
-148.99999999999989
10
7.1252726028350193e-13
20
-149.00000000000003
0
ENDSEC
0
SECTION
2
OBJECTS
0
DICTIONARY
5
C
100
AcDbDictionary
3
ACAD_GROUP
350
D
3
ACAD_MLINESTYLE
350
17
0
DICTIONARY
5
D
100
AcDbDictionary
0
DICTIONARY
5
1A
330
C
100
AcDbDictionary
0
DICTIONARY
5
17
100
AcDbDictionary
0
ENDSEC
0
EOF
