0
SECTION
2
HEADER
9
$INSUNITS
70
4
9
$ACADVER
1
AC1014
9
$HANDSEED
5
FFFF
0
ENDSEC
0
SECTION
2
TABLES
0
TABLE
2
VPORT
5
8
100
AcDbSymbolTable
0
ENDTAB
0
TABLE
2
LTYPE
5
5
100
AcDbSymbolTable
0
LTYPE
5
14
100
AcDbSymbolTableRecord
100
AcDbLinetypeTableRecord
2
BYBLOCK
70
0
0
LTYPE
5
15
100
AcDbSymbolTableRecord
100
AcDbLinetypeTableRecord
2
BYLAYER
70
0
0
ENDTAB
0
TABLE
2
LAYER
5
2
100
AcDbSymbolTable
70
2
0
LAYER
5
50
100
AcDbSymbolTableRecord
100
AcDbLayerTableRecord
2
0
70
0
6
CONTINUOUS
0
ENDTAB
0
TABLE
2
STYLE
5
3
100
AcDbSymbolTable
70
1
0
STYLE
5
11
100
AcDbSymbolTableRecord
100
AcDbTextStyleTableRecord
2
STANDARD
70
0
0
ENDTAB
0
TABLE
2
VIEW
5
6
100
AcDbSymbolTable
70
0
0
ENDTAB
0
TABLE
2
UCS
5
7
100
AcDbSymbolTable
70
0
0
ENDTAB
0
TABLE
2
APPID
5
9
100
AcDbSymbolTable
70
2
0
APPID
5
12
100
AcDbSymbolTableRecord
100
AcDbRegAppTableRecord
2
ACAD
70
0
0
ENDTAB
0
TABLE
2
DIMSTYLE
5
A
100
AcDbSymbolTable
70
1
0
ENDTAB
0
TABLE
2
BLOCK_RECORD
5
1
100
AcDbSymbolTable
70
1
0
BLOCK_RECORD
5
1F
100
AcDbSymbolTableRecord
100
AcDbBlockTableRecord
2
*MODEL_SPACE
0
BLOCK_RECORD
5
1B
100
AcDbSymbolTableRecord
100
AcDbBlockTableRecord
2
*PAPER_SPACE
0
ENDTAB
0
ENDSEC
0
SECTION
2
BLOCKS
0
BLOCK
5
20
100
AcDbEntity
100
AcDbBlockBegin
2
*MODEL_SPACE
0
ENDBLK
5
21
100
AcDbEntity
100
AcDbBlockEnd
0
BLOCK
5
1C
100
AcDbEntity
100
AcDbBlockBegin
2
*PAPER_SPACE
0
ENDBLK
5
1D
100
AcDbEntity
100
AcDbBlockEnd
0
ENDSEC
0
SECTION
2
ENTITIES
0
CIRCLE
5
100
100
AcDbEntity
8
0
100
AcDbCircle
10
-16.000000000000327
20
-9.000000000000961
30
0
40
1.9000000000000044
210
1.8216880036222627e-44
220
4.2128775258628525e-73
230
1
0
LWPOLYLINE
5
101
100
AcDbEntity
8
0
100
AcDbPolyline
90
6
70
1
43
0.0
10
-107.00000191977767
20
-11.732069107002518
10
-104.00000202161515
20
-13.464119299465588
10
-101.00000260523115
20
-11.732068272537644
10
-101.00000308700967
20
-8.2679670531466272
10
-104.0000029851722
20
-6.5359168606835567
10
-107.0000024015562
20
-8.267967887611503
0
LWPOLYLINE
5
102
100
AcDbEntity
8
0
100
AcDbPolyline
90
6
70
1
43
0.0
10
-107.00000066808022
20
-20.732069107002431
10
-104.0000007699177
20
-22.464119299465501
10
-101.00000135353368
20
-20.73206827253756
10
-101.0000018353122
20
-17.267967053146542
10
-104.00000173347472
20
-15.535916860683471
10
-107.00000114985875
20
-17.267967887611416
0
LWPOLYLINE
5
103
100
AcDbEntity
8
0
100
AcDbPolyline
90
6
70
1
43
0.0
10
-106.99999941638276
20
-29.732069107002346
10
-103.99999951822025
20
-31.464119299465416
10
-101.00000010183622
20
-29.732068272537472
10
-101.00000058361475
20
-26.267967053146457
10
-104.00000048177728
20
-24.535916860683386
10
-106.99999989816129
20
-26.267967887611331
0
LWPOLYLINE
5
104
100
AcDbEntity
8
0
100
AcDbPolyline
90
6
70
1
43
0.0
10
-96.166668586444445
20
-11.732067600329659
10
-93.166668688281931
20
-13.464117792792729
10
-90.166669271897902
20
-11.732066765864783
10
-90.16666975367643
20
-8.2679655464737678
10
-93.166669651838959
20
-6.5359153540106973
10
-96.166669068222973
20
-8.2679663809386419
0
LWPOLYLINE
5
105
100
AcDbEntity
8
0
100
AcDbPolyline
90
6
70
1
43
0.0
10
-96.16666733474699
20
-20.732067600329572
10
-93.166667436584447
20
-22.464117792792642
10
-90.166668020200433
20
-20.732066765864698
10
-90.166668501978961
20
-17.267965546473683
10
-93.166668400141504
20
-15.535915354010612
10
-96.166667816525518
20
-17.267966380938557
0
LWPOLYLINE
5
106
100
AcDbEntity
8
0
100
AcDbPolyline
90
6
70
1
43
0.0
10
-96.166666083049535
20
-29.732067600329486
10
-93.166666184886992
20
-31.464117792792557
10
-90.166666768502992
20
-29.732066765864612
10
-90.16666725028152
20
-26.267965546473597
10
-93.166667148444049
20
-24.535915354010527
10
-96.166666564828063
20
-26.267966380938471
0
LWPOLYLINE
5
107
100
AcDbEntity
8
0
100
AcDbPolyline
90
6
70
1
43
0.0
10
-85.33333525311123
20
-11.732066093656799
10
-82.333335354948716
20
-13.46411628611987
10
-79.333335938564687
20
-11.732065259191923
10
-79.333336420343215
20
-8.2679640398009084
10
-82.333336318505729
20
-6.535913847337838
10
-85.333335734889758
20
-8.2679648742657825
0
LWPOLYLINE
5
108
100
AcDbEntity
8
0
100
AcDbPolyline
90
6
70
1
43
0.0
10
-85.33333400141376
20
-20.732066093656712
10
-82.333334103251232
20
-22.464116286119783
10
-79.333334686867232
20
-20.732065259191835
10
-79.33333516864576
20
-17.26796403980082
10
-82.333335066808289
20
-15.535913847337749
10
-85.333334483192289
20
-17.267964874265694
0
LWPOLYLINE
5
109
100
AcDbEntity
8
0
100
AcDbPolyline
90
6
70
1
43
0.0
10
-85.33333274971632
20
-29.732066093656627
10
-82.333332851553791
20
-31.464116286119697
10
-79.333333435169777
20
-29.732065259191749
10
-79.333333916948305
20
-26.267964039800734
10
-82.333333815110848
20
-24.535913847337664
10
-85.333333231494848
20
-26.267964874265608
0
LWPOLYLINE
5
110
100
AcDbEntity
8
0
100
AcDbPolyline
90
6
70
1
43
0.0
10
-74.500001919778001
20
-11.732064586983938
10
-71.500002021615472
20
-13.464114779447009
10
-68.500002605231458
20
-11.732063752519064
10
-68.500003087009986
20
-8.2679625331280491
10
-71.500002985172515
20
-6.5359123406649777
10
-74.500002401556529
20
-8.2679633675929232
0
LWPOLYLINE
5
111
100
AcDbEntity
8
0
100
AcDbPolyline
90
6
70
1
43
0.0
10
-74.500000668080531
20
-20.732064586983853
10
-71.500000769918003
20
-22.464114779446923
10
-68.500001353533989
20
-20.732063752518979
10
-68.500001835312517
20
-17.267962533127964
10
-71.500001733475045
20
-15.535912340664893
10
-74.50000114985906
20
-17.267963367592838
0
LWPOLYLINE
5
112
100
AcDbEntity
8
0
100
AcDbPolyline
90
6
70
1
43
0.0
10
-74.499999416383091
20
-29.732064586983764
10
-71.499999518220562
20
-31.464114779446835
10
-68.500000101836548
20
-29.73206375251889
10
-68.500000583615076
20
-26.267962533127871
10
-71.500000481777604
20
-24.535912340664801
10
-74.499999898161619
20
-26.267963367592749
0
LWPOLYLINE
5
113
100
AcDbEntity
8
0
100
AcDbPolyline
90
6
70
1
43
0.0
10
-31.166668586445084
20
-11.732058560292497
10
-28.166668688282552
20
-13.464108752755568
10
-25.166669271898542
20
-11.732057725827623
10
-25.166669753677059
20
-8.2679565064366063
10
-28.166669651839591
20
-6.5359063139735358
10
-31.166669068223602
20
-8.2679573409014822
0
LWPOLYLINE
5
114
100
AcDbEntity
8
0
100
AcDbPolyline
90
6
70
1
43
0.0
10
-31.166667334747636
20
-20.732058560292408
10
-28.166667436585104
20
-22.464108752755479
10
-25.166668020201094
20
-20.732057725827534
10
-25.166668501979611
20
-17.267956506436519
10
-28.166668400142143
20
-15.535906313973449
10
-31.166667816526154
20
-17.267957340901393
0
LWPOLYLINE
5
115
100
AcDbEntity
8
0
100
AcDbPolyline
90
6
70
1
43
0.0
10
-31.166666083050178
20
-29.732058560292323
10
-28.166666184887646
20
-31.464108752755394
10
-25.166666768503635
20
-29.732057725827449
10
-25.166667250282156
20
-26.267956506436434
10
-28.166667148444688
20
-24.535906313973364
10
-31.166666564828699
20
-26.267957340901308
0
LWPOLYLINE
5
116
100
AcDbEntity
8
0
100
AcDbPolyline
90
6
70
1
43
0.0
10
-20.333334001414404
20
-20.732057053619553
10
-17.333334103251872
20
-22.464107246082623
10
-14.333334686867861
20
-20.732056219154678
10
-14.333335168646379
20
-17.26795499976366
10
-17.33333506680891
20
-15.535904807300591
10
-20.333334483192921
20
-17.267955834228538
0
LWPOLYLINE
5
117
100
AcDbEntity
8
0
100
AcDbPolyline
90
6
70
1
43
0.0
10
-20.333332749716945
20
-29.732057053619464
10
-17.333332851554417
20
-31.464107246082534
10
-14.333333435170402
20
-29.732056219154586
10
-14.333333916948924
20
-26.267954999763571
10
-17.333333815111452
20
-24.535904807300501
10
-20.333333231495466
20
-26.267955834228445
0
LWPOLYLINE
5
118
100
AcDbEntity
8
0
100
AcDbPolyline
90
6
70
1
43
0.0
10
-9.5000019197786223
20
-11.732055546946778
10
-6.5000020216160914
20
-13.464105739409849
10
-3.5000026052320798
20
-11.732054712481903
10
-3.5000030870105991
20
-8.2679534930908876
10
-6.50000298517313
20
-6.5359033006278171
10
-9.5000024015571416
20
-8.2679543275557617
0
LWPOLYLINE
5
119
100
AcDbEntity
8
0
100
AcDbPolyline
90
6
70
1
43
0.0
10
-9.5000006680811708
20
-20.73205554694669
10
-6.5000007699186391
20
-22.46410573940976
10
-3.5000013535346275
20
-20.732054712481816
10
-3.5000018353131468
20
-17.267953493090801
10
-6.5000017334756777
20
-15.53590330062773
10
-9.5000011498596884
20
-17.267954327555675
0
LWPOLYLINE
5
120
100
AcDbEntity
8
0
100
AcDbPolyline
90
6
70
1
43
0.0
10
-9.4999994163837176
20
-29.732055546946604
10
-6.4999995182211867
20
-31.464105739409675
10
-3.5000001018371751
20
-29.73205471248173
10
-3.5000005836156944
20
-26.267953493090715
10
-6.5000004817782253
20
-24.535903300627645
10
-9.4999998981622369
20
-26.267954327555589
0
LWPOLYLINE
5
121
100
AcDbEntity
8
0
100
AcDbPolyline
90
6
70
1
43
0.0
10
1.3333314135546059
20
-11.732054040273916
10
4.3333313117171368
20
-13.464104232736986
10
7.3333307281011484
20
-11.732053205809041
10
7.3333302463226291
20
-8.2679519864180246
10
4.3333303481600982
20
-6.5359017939549542
10
1.3333309317760866
20
-8.2679528208829005
0
LWPOLYLINE
5
122
100
AcDbEntity
8
0
100
AcDbPolyline
90
6
70
1
43
0.0
10
1.3333326652520583
20
-20.73205404027383
10
4.3333325634145892
20
-22.464104232736901
10
7.3333319797986007
20
-20.73205320580896
10
7.3333314980200814
20
-17.267951986417941
10
4.3333315998575506
20
-15.535901793954869
10
1.333332183473539
20
-17.267952820882815
0
LWPOLYLINE
5
123
100
AcDbEntity
8
0
100
AcDbPolyline
90
6
70
1
43
0.0
10
1.3333339169495106
20
-29.732054040273745
10
4.3333338151120415
20
-31.464104232736815
10
7.3333332314960531
20
-29.732053205808867
10
7.3333327497175338
20
-26.267951986417852
10
4.3333328515550029
20
-24.535901793954782
10
1.3333334351709913
20
-26.267952820882726
0
LWPOLYLINE
5
124
100
AcDbEntity
8
0
100
AcDbPolyline
90
6
70
1
43
0.0
10
12.166664746887832
20
-11.732052533601056
10
15.166664645050362
20
-13.464102726064127
10
18.166664061434375
20
-11.732051699136182
10
18.166663579655854
20
-8.2679504797451653
10
15.166663681493324
20
-6.5359002872820948
10
12.166664265109313
20
-8.2679513142100411
0
LWPOLYLINE
5
125
100
AcDbEntity
8
0
100
AcDbPolyline
90
6
70
1
43
0.0
10
12.166665998585287
20
-20.732052533600971
10
15.166665896747817
20
-22.464102726064041
10
18.16666531313183
20
-20.732051699136097
10
18.166664831353309
20
-17.267950479745082
10
15.166664933190779
20
-15.53590028728201
10
12.166665516806766
20
-17.267951314209956
0
LWPOLYLINE
5
126
100
AcDbEntity
8
0
100
AcDbPolyline
90
6
70
1
43
0.0
10
12.166667250282739
20
-29.732052533600886
10
15.166667148445271
20
-31.464102726063956
10
18.166666564829281
20
-29.732051699136012
10
18.166666083050764
20
-26.267950479744997
10
15.166666184888232
20
-24.535900287281926
10
12.16666676850422
20
-26.267951314209871
0
LWPOLYLINE
5
127
100
AcDbEntity
8
0
100
AcDbPolyline
90
6
70
1
43
0.0
10
22.999998080221062
20
-11.732051026928197
10
25.999997978383593
20
-13.464101219391267
10
28.999997394767604
20
-11.732050192463321
10
28.999996912989086
20
-8.2679489730723059
10
25.999997014826555
20
-6.5358987806092355
10
22.999997598442544
20
-8.26794980753718
0
LWPOLYLINE
5
128
100
AcDbEntity
8
0
100
AcDbPolyline
90
6
70
1
43
0.0
10
22.999999331918517
20
-20.732051026928108
10
25.999999230081045
20
-22.464101219391178
10
28.999998646465059
20
-20.732050192463234
10
28.999998164686538
20
-17.267948973072219
10
25.999998266524006
20
-15.535898780609148
10
22.999998850139995
20
-17.267949807537093
0
LWPOLYLINE
5
129
100
AcDbEntity
8
0
100
AcDbPolyline
90
6
70
1
43
0.0
10
23.000000583615968
20
-29.732051026928023
10
26.0000004817785
20
-31.464101219391093
10
28.99999989816251
20
-29.732050192463149
10
28.999999416383989
20
-26.267948973072134
10
25.999999518221458
20
-24.535898780609063
10
23.000000101837447
20
-26.267949807537008
0
LWPOLYLINE
5
130
100
AcDbEntity
8
0
100
AcDbPolyline
90
4
70
1
43
0.0
10
-42.656981019584038
20
-22.055119166575004
10
-42.656981019584038
20
-12.055119166575011
10
-63.656981019584038
20
-12.055119166575011
10
-63.656981019584038
20
-22.055119166575004
0
LWPOLYLINE
5
131
100
AcDbEntity
8
0
100
AcDbPolyline
90
4
70
1
43
0.0
10
-127
20
-2.6645352591003757e-13
10
49.999999999999893
20
-7.9936057773011271e-14
10
49.999999999999986
20
-40.000000000000078
10
-126.9999999999999
20
-40.00000000000027
0
ENDSEC
0
SECTION
2
OBJECTS
0
DICTIONARY
5
C
100
AcDbDictionary
3
ACAD_GROUP
350
D
3
ACAD_MLINESTYLE
350
17
0
DICTIONARY
5
D
100
AcDbDictionary
0
DICTIONARY
5
1A
330
C
100
AcDbDictionary
0
DICTIONARY
5
17
100
AcDbDictionary
0
ENDSEC
0
EOF
